<svg xmlns="http://www.w3.org/2000/svg" width="1200" height="630" viewBox="0 0 1200 630">
  <rect width="1200" height="630" fill="#0f172a" />
  <rect x="54" y="54" width="1092" height="522" rx="28" fill="#ffffff" opacity="0.96" />
  <rect x="94" y="94" width="260" height="18" rx="9" fill="#0ea5a4" />
  <rect x="94" y="132" width="420" height="30" rx="15" fill="#0f172a" />
  <rect x="94" y="186" width="520" height="18" rx="9" fill="#475569" />
  <rect x="94" y="220" width="460" height="18" rx="9" fill="#475569" opacity="0.8" />
  <circle cx="910" cy="280" r="112" fill="#0ea5a4" />
  <path d="M910 208c-40 0-72 32-72 72 0 38 30 72 72 72 40 0 72-34 72-72 0-40-32-72-72-72z" fill="#ffffff" opacity="0.96" />
  <text x="94" y="460" font-family="Inter, Arial, sans-serif" font-size="54" font-weight="700" fill="#0f172a">Xiaotang Guan</text>
  <text x="94" y="514" font-family="Inter, Arial, sans-serif" font-size="30" fill="#475569">Photography • Writing • Software</text>
</svg>